<svg width="428" height="856" viewBox="0 0 428 856" fill="none" xmlns="http://www.w3.org/2000/svg">
<path opacity="0.2" d="M856 406.697C856 654.451 663.984 856 428 856C192.016 856 1.08297e-05 654.451 0 406.697C-7.22827e-06 241.334 86.1836 89.7828 224.895 11.1864L244.544 1.60383e-05L428 192.6L611.456 0L631.105 11.1864C769.816 89.7827 856 241.334 856 406.697ZM60.0173 406.697C60.0173 619.725 225.089 792.967 428 792.967C630.911 792.967 795.983 619.725 795.983 406.697C795.983 272.364 729.837 148.535 621.865 78.3046L470.508 237.151L539.572 309.619C572.839 342.108 591.905 388.021 591.905 435.685C591.905 530.525 518.366 607.76 428 607.76C337.634 607.76 264.095 530.623 264.095 435.685C264.095 388.021 283.161 342.108 316.428 309.619L385.492 237.054L234.135 78.2073C126.26 148.535 60.0173 272.364 60.0173 406.697ZM324.113 435.685C324.113 495.799 370.706 544.727 428 544.727C485.294 544.727 531.79 495.799 531.79 435.685C531.79 405.335 519.631 376.154 498.328 355.532L497.453 354.656L428 281.702L357.672 355.532C336.369 376.154 324.113 405.433 324.113 435.685Z" fill="white"/>
</svg>
