<svg width="902" height="768" viewBox="0 0 902 768" fill="none" xmlns="http://www.w3.org/2000/svg">
<path d="M902 361.552C902 622.62 699.665 835 451 835C202.335 835 1.14116e-05 622.62 0 361.553C-7.61671e-06 187.303 90.815 27.6075 236.98 -55.2125L257.685 -67L451 135.95L644.315 -67L665.02 -55.2125C811.185 27.6075 902 187.302 902 361.552ZM63.2425 361.553C63.2425 586.028 237.185 768.58 451 768.58C664.815 768.58 838.758 586.028 838.758 361.553C838.758 220 769.057 89.5175 655.282 15.5125L495.792 182.895L568.568 259.258C603.622 293.493 623.712 341.872 623.713 392.098C623.713 492.035 546.222 573.42 451 573.42C355.777 573.42 278.288 492.138 278.287 392.098C278.287 341.872 298.377 293.493 333.432 259.258L406.207 182.792L246.717 15.41C133.045 89.5175 63.2425 220 63.2425 361.553ZM341.53 392.098C341.53 455.443 390.628 507 451 507C511.372 507 560.367 455.443 560.367 392.098C560.367 360.117 547.555 329.367 525.107 307.637L524.185 306.715L451 229.84L376.892 307.637C354.445 329.367 341.53 360.22 341.53 392.098Z" fill="url(#paint0_linear)"/>
<defs>
<linearGradient id="paint0_linear" x1="902" y1="-67" x2="0" y2="835" gradientUnits="userSpaceOnUse">
<stop stop-color="#006251"/>
<stop offset="1" stop-color="#007460"/>
</linearGradient>
</defs>
</svg>
