<svg width="107" height="32" viewBox="0 0 107 32" fill="none" xmlns="http://www.w3.org/2000/svg">
<path fill-rule="evenodd" clip-rule="evenodd" d="M65.9416 25.0257C59.7877 29.5759 50.8367 32.0001 43.1164 32.0001C32.3005 32.0001 22.6036 28.0094 15.219 21.3707C14.6595 20.8485 15.1444 20.1399 15.853 20.5501C23.797 25.1749 33.6059 27.9348 43.7504 27.9348C50.5756 27.9348 58.1094 26.5176 65.0465 23.5711C66.0908 23.1609 66.9486 24.2798 65.9416 25.0257Z" fill="#FF9900"/>
<path fill-rule="evenodd" clip-rule="evenodd" d="M68.515 22.0792C67.7318 21.0722 63.2936 21.5944 61.3169 21.8555C60.7201 21.9301 60.6083 21.4079 61.1677 21.0349C64.7108 18.5361 70.4917 19.282 71.163 20.1025C71.8344 20.9231 70.9765 26.7412 67.6572 29.5012C67.1351 29.9114 66.6502 29.6876 66.874 29.1282C67.6199 27.2634 69.2982 23.1235 68.515 22.0792Z" fill="#FF9900"/>
<path fill-rule="evenodd" clip-rule="evenodd" d="M61.4288 3.50582V1.08158C61.4288 0.708622 61.6898 0.484844 62.0255 0.484844H72.8414C73.177 0.484844 73.4754 0.745918 73.4754 1.08158V3.13286C73.4754 3.46853 73.177 3.91608 72.6549 4.662L67.0605 12.6434C69.149 12.6061 71.3495 12.9044 73.2143 13.9487C73.6246 14.1725 73.7365 14.5455 73.7738 14.8811V17.4545C73.7738 17.8275 73.4008 18.2378 72.9905 18.014C69.6712 16.2611 65.233 16.0746 61.578 18.0513C61.205 18.2378 60.7947 17.8648 60.7947 17.4918V15.0303C60.7947 14.6573 60.7947 13.986 61.205 13.3893L67.6945 4.10256H62.0628C61.7271 4.10256 61.4288 3.84149 61.4288 3.50582ZM22.0069 18.5361H18.7248C18.4264 18.4988 18.1654 18.275 18.1281 17.9767V1.11888C18.1281 0.783217 18.4264 0.522142 18.7621 0.522142H21.8204C22.156 0.522142 22.3798 0.783214 22.4171 1.08158V3.28205H22.4917C23.2749 1.15617 24.8041 0.149182 26.818 0.149182C28.8693 0.149182 30.1747 1.15617 31.0698 3.28205C31.853 1.15617 33.6805 0.149182 35.6199 0.149182C36.9999 0.149182 38.4917 0.708622 39.4241 2.01398C40.4684 3.43123 40.2446 5.48252 40.2446 7.31002V17.9767C40.2446 18.3123 39.9463 18.5734 39.6106 18.5734H36.3658C36.0302 18.5361 35.7691 18.275 35.7691 17.9767V9.02563C35.7691 8.31701 35.8437 6.5268 35.6945 5.85547C35.4334 4.73659 34.7248 4.40093 33.7551 4.40093C32.9719 4.40093 32.1141 4.92308 31.7784 5.78089C31.4428 6.63869 31.4801 8.05594 31.4801 9.02563V17.9767C31.4801 18.3123 31.1817 18.5734 30.846 18.5734H27.564C27.2283 18.5361 26.9672 18.275 26.9672 17.9767V9.02563C26.9672 7.16083 27.2656 4.36363 24.9532 4.36363C22.6036 4.36363 22.6782 7.04894 22.6782 9.02563V17.9767C22.6409 18.275 22.3798 18.5361 22.0069 18.5361ZM82.7994 0.149182C87.6852 0.149182 90.3332 4.32634 90.3332 9.65967C90.3332 14.8065 87.4241 18.9091 82.7994 18.9091C78.0255 18.9091 75.4148 14.7319 75.4148 9.51049C75.3775 4.25175 78.0255 0.149182 82.7994 0.149182ZM82.7994 3.61771C80.3752 3.61771 80.226 6.93706 80.226 8.98835C80.226 11.0396 80.1887 15.4406 82.7621 15.4406C85.2982 15.4406 85.4474 11.8974 85.4474 9.73427C85.4474 8.31702 85.3728 6.6014 84.9626 5.25874C84.5896 4.06527 83.8437 3.61771 82.7994 3.61771ZM96.6362 18.5361H93.3542C93.0185 18.4988 92.7575 18.2378 92.7575 17.9394V1.04428C92.7947 0.745916 93.0558 0.484844 93.3915 0.484844H96.4498C96.7481 0.484844 96.9719 0.708627 97.0465 0.969699V3.54312H97.1211C98.0535 1.23077 99.3215 0.149182 101.597 0.149182C103.051 0.149182 104.506 0.671322 105.438 2.12587C106.296 3.46852 106.296 5.74358 106.296 7.38461V18.014C106.259 18.3123 105.998 18.5361 105.662 18.5361H102.38C102.081 18.4988 101.82 18.2751 101.783 18.014V8.83915C101.783 6.97435 102.007 4.28904 99.7318 4.28904C98.9486 4.28904 98.2027 4.81119 97.8297 5.6317C97.3821 6.67599 97.3076 7.68298 97.3076 8.83915V17.9394C97.2703 18.2751 96.9719 18.5361 96.6362 18.5361ZM52.8134 10.4802C52.8134 11.7483 52.8507 12.8298 52.2167 13.986C51.6945 14.9184 50.874 15.4779 49.9416 15.4779C48.6735 15.4779 47.9276 14.5082 47.9276 13.0909C47.9276 10.2937 50.4264 9.77155 52.8134 9.77155V10.4802ZM56.1327 18.4988C55.909 18.6853 55.6106 18.7226 55.3495 18.5734C54.2679 17.6783 54.0442 17.2308 53.4474 16.373C51.6572 18.2005 50.3518 18.7599 48.0395 18.7599C45.2796 18.7599 43.1164 17.0443 43.1164 13.6504C43.1164 10.965 44.571 9.17482 46.6222 8.27971C48.4125 7.4965 50.9113 7.34732 52.8134 7.12354V6.71329C52.8134 5.93007 52.888 4.99767 52.4031 4.32634C51.9929 3.72961 51.247 3.46853 50.5756 3.46853C49.3076 3.46853 48.1887 4.10257 47.9276 5.44522C47.853 5.74359 47.6665 6.04195 47.3682 6.04195L44.198 5.70629C43.9369 5.6317 43.6386 5.44522 43.7132 5.03496C44.4591 1.15618 47.9276 0 51.0605 0C52.6642 0 54.7528 0.410254 56.0209 1.64102C57.6246 3.13286 57.4754 5.14685 57.4754 7.31002V12.4196C57.4754 13.9487 58.1094 14.62 58.7062 15.4779C58.9299 15.7762 58.9672 16.1492 58.7062 16.3357C57.9975 16.8951 56.8041 17.9394 56.1327 18.4988ZM9.73647 10.4802C9.73647 11.7483 9.77376 12.8298 9.13973 13.986C8.61758 14.9184 7.79707 15.4779 6.86467 15.4779C5.5966 15.4779 4.85068 14.5082 4.85068 13.0909C4.85068 10.2937 7.34952 9.77155 9.73647 9.77155V10.4802ZM13.0185 18.4988C12.7947 18.6853 12.4964 18.7226 12.2353 18.5734C11.1537 17.6783 10.9299 17.2308 10.3332 16.373C8.54299 18.2005 7.23763 18.7599 4.92527 18.7599C2.16537 18.7599 0.00219727 17.0443 0.00219727 13.6504C0.00219727 10.965 1.45674 9.17482 3.50802 8.27971C5.29823 7.4965 7.79707 7.34732 9.69917 7.12354V6.71329C9.69917 5.93007 9.77376 4.99767 9.28891 4.32634C8.87865 3.72961 8.13273 3.46853 7.4614 3.46853C6.19334 3.46853 5.07446 4.10257 4.81338 5.44522C4.73879 5.74359 4.55231 6.04195 4.25394 6.04195L1.08378 5.70629C0.822708 5.6317 0.524344 5.44522 0.598936 5.03496C1.34486 1.15618 4.81339 0 7.94625 0C9.54998 0 11.6386 0.410254 12.9066 1.64102C14.5104 3.13286 14.3612 5.14685 14.3612 7.31002V12.4196C14.3612 13.9487 14.9952 14.62 15.5919 15.4779C15.8157 15.7762 15.853 16.1492 15.5919 16.3357C14.8833 16.8951 13.6898 17.9394 13.0185 18.4988Z" fill="black"/>
</svg>
