<svg width="120" height="24" viewBox="0 0 120 24" fill="none" xmlns="http://www.w3.org/2000/svg">
<g clip-path="url(#clip0)">
<path d="M13.8704 4.43766L6.93522 8.8644L13.8704 13.2911L6.93522 17.7179L0 13.2542L6.93522 8.82751L0 4.43766L6.93522 0.0109253L13.8704 4.43766ZM6.89833 19.1197L13.8336 14.6929L20.7688 19.1197L13.8336 23.5464L6.89833 19.1197ZM13.8704 13.2542L20.8057 8.82751L13.8704 4.43766L20.7688 0.0109253L27.704 4.43766L20.7688 8.8644L27.704 13.2911L20.7688 17.7179L13.8704 13.2542Z" fill="#48586F"/>
<path d="M33.1267 4.43767H38.7339C42.3122 4.43767 45.2633 6.50348 45.2633 11.2253V12.2213C45.2633 16.9801 42.4966 19.1197 38.8446 19.1197H33.1267V4.43767ZM36.2623 7.09371V16.4267H38.6601C40.6891 16.4267 42.054 15.0987 42.054 12.1476V11.3729C42.054 8.42173 40.6153 7.09371 38.5495 7.09371H36.2623ZM46.9234 7.24127H49.4319L49.8376 10.008C50.3172 8.12661 51.5346 7.1306 53.7479 7.1306H54.5226V10.3031H53.2315C50.6861 10.3031 50.059 11.1884 50.059 13.6969V19.1566H46.9603V7.24127H46.9234ZM55.1497 13.4387V13.1067C55.1497 9.12263 57.6951 6.94615 61.1627 6.94615C64.7041 6.94615 67.1757 9.12263 67.1757 13.1067V13.4387C67.1757 17.349 64.7779 19.4517 61.1627 19.4517C57.3262 19.4148 55.1497 17.349 55.1497 13.4387ZM64.0032 13.4018V13.1067C64.0032 10.8933 62.8965 9.5653 61.1258 9.5653C59.392 9.5653 58.2484 10.7827 58.2484 13.1067V13.4018C58.2484 15.5414 59.3551 16.7588 61.1258 16.7588C62.8965 16.7219 64.0032 15.5414 64.0032 13.4018ZM68.7988 7.24127H71.3811L71.6762 9.49153C72.3033 7.97906 73.6314 6.94615 75.5865 6.94615C78.6114 6.94615 80.6035 9.12263 80.6035 13.1436V13.4756C80.6035 17.3859 78.3901 19.4517 75.5865 19.4517C73.7051 19.4517 72.414 18.6032 71.7869 17.2383V23.2513H68.7619L68.7988 7.24127ZM77.4679 13.4018V13.1436C77.4679 10.7827 76.2505 9.60219 74.6274 9.60219C72.8936 9.60219 71.75 10.9302 71.75 13.1436V13.3649C71.75 15.4676 72.8567 16.7956 74.5905 16.7956C76.3612 16.7588 77.4679 15.6152 77.4679 13.4018ZM85.1778 16.9432L84.9195 19.1197H82.2635V3.2572H85.2884V9.34397C85.9524 7.79461 87.2805 6.94615 89.1618 6.94615C92.0023 6.98304 94.105 8.93818 94.105 12.8854V13.2543C94.105 17.2014 92.113 19.4517 89.088 19.4517C87.096 19.4148 85.8049 18.4926 85.1778 16.9432ZM90.9325 13.2543V12.9591C90.9325 10.7827 89.7521 9.5653 88.092 9.5653C86.3951 9.5653 85.2147 10.9302 85.2147 12.996V13.2543C85.2147 15.4676 86.3582 16.7588 88.0551 16.7588C89.8627 16.7588 90.9325 15.6152 90.9325 13.2543ZM95.433 13.4387V13.1067C95.433 9.12263 97.9784 6.94615 101.446 6.94615C104.987 6.94615 107.459 9.12263 107.459 13.1067V13.4387C107.459 17.349 105.024 19.4517 101.446 19.4517C97.6095 19.4148 95.433 17.349 95.433 13.4387ZM104.323 13.4018V13.1067C104.323 10.8933 103.217 9.5653 101.446 9.5653C99.7122 9.5653 98.5686 10.7827 98.5686 13.1067V13.4018C98.5686 15.5414 99.6753 16.7588 101.446 16.7588C103.217 16.7219 104.323 15.5414 104.323 13.4018ZM111.517 12.9591L107.348 7.24127H110.927L113.324 10.8195L115.759 7.24127H119.301L115.058 12.9222L119.522 19.1197H116.017L113.288 15.1725L110.632 19.1197H106.979L111.517 12.9591Z" fill="black"/>
</g>
<defs>
<clipPath id="clip0">
<rect width="119.522" height="24" fill="white"/>
</clipPath>
</defs>
</svg>
