<svg width="24" height="24" viewBox="0 0 24 24" fill="none" xmlns="http://www.w3.org/2000/svg">
<path fill-rule="evenodd" clip-rule="evenodd" d="M7.60057 2.18182H16.3991C19.3872 2.18182 21.8182 4.61281 21.8181 7.60074V16.3993C21.8181 19.3872 19.3872 21.8182 16.3991 21.8182H7.60057C4.61264 21.8182 2.18176 19.3873 2.18176 16.3993V7.60074C2.18176 4.61281 4.61264 2.18182 7.60057 2.18182ZM16.3992 20.0759C18.4266 20.0759 20.076 18.4266 20.076 16.3993H20.0759V7.60074C20.0759 5.57348 18.4265 3.92405 16.3991 3.92405H7.60057C5.57331 3.92405 3.924 5.57348 3.924 7.60074V16.3993C3.924 18.4266 5.57331 20.0761 7.60057 20.0759H16.3992ZM6.85709 12.0001C6.85709 9.16424 9.16413 6.85714 11.9999 6.85714C14.8358 6.85714 17.1428 9.16424 17.1428 12.0001C17.1428 14.8359 14.8358 17.1429 11.9999 17.1429C9.16413 17.1429 6.85709 14.8359 6.85709 12.0001ZM8.62792 12C8.62792 13.8593 10.1407 15.3719 11.9999 15.3719C13.8592 15.3719 15.372 13.8593 15.372 12C15.372 10.1406 13.8593 8.6279 11.9999 8.6279C10.1406 8.6279 8.62792 10.1406 8.62792 12Z" fill="#006251"/>
<mask id="mask0" mask-type="alpha" maskUnits="userSpaceOnUse" x="2" y="2" width="20" height="20">
<path fill-rule="evenodd" clip-rule="evenodd" d="M7.60057 2.18182H16.3991C19.3872 2.18182 21.8182 4.61281 21.8181 7.60074V16.3993C21.8181 19.3872 19.3872 21.8182 16.3991 21.8182H7.60057C4.61264 21.8182 2.18176 19.3873 2.18176 16.3993V7.60074C2.18176 4.61281 4.61264 2.18182 7.60057 2.18182ZM16.3992 20.0759C18.4266 20.0759 20.076 18.4266 20.076 16.3993H20.0759V7.60074C20.0759 5.57348 18.4265 3.92405 16.3991 3.92405H7.60057C5.57331 3.92405 3.924 5.57348 3.924 7.60074V16.3993C3.924 18.4266 5.57331 20.0761 7.60057 20.0759H16.3992ZM6.85709 12.0001C6.85709 9.16424 9.16413 6.85714 11.9999 6.85714C14.8358 6.85714 17.1428 9.16424 17.1428 12.0001C17.1428 14.8359 14.8358 17.1429 11.9999 17.1429C9.16413 17.1429 6.85709 14.8359 6.85709 12.0001ZM8.62792 12C8.62792 13.8593 10.1407 15.3719 11.9999 15.3719C13.8592 15.3719 15.372 13.8593 15.372 12C15.372 10.1406 13.8593 8.6279 11.9999 8.6279C10.1406 8.6279 8.62792 10.1406 8.62792 12Z" fill="white"/>
</mask>
<g mask="url(#mask0)">
</g>
</svg>
