<svg width="95" height="24" viewBox="0 0 95 24" fill="none" xmlns="http://www.w3.org/2000/svg">
<g clip-path="url(#clip0)">
<path fill-rule="evenodd" clip-rule="evenodd" d="M30.3433 18.8973L31.5269 16.1467C32.8055 17.1028 34.5089 17.5998 36.1896 17.5998C37.4302 17.5998 38.2155 17.1217 38.2155 16.3971C38.1966 14.3712 30.7834 15.957 30.7264 10.877C30.7075 8.2972 32.999 6.30922 36.2465 6.30922C38.1776 6.30922 40.1049 6.78724 41.4821 7.87608L40.3742 10.6835C39.1147 9.87925 37.5478 9.30637 36.0568 9.30637C35.0439 9.30637 34.3761 9.7844 34.3761 10.3952C34.3951 12.3832 41.8652 11.2944 41.9411 16.1467C41.9411 18.7835 39.7065 20.6387 36.4969 20.6387C34.1447 20.6349 31.986 20.081 30.3433 18.8973ZM75.7976 15.1527C75.2058 16.1847 74.0979 16.8903 72.8156 16.8903C70.9225 16.8903 69.3973 15.3614 69.3973 13.472C69.3973 11.5827 70.9263 10.0538 72.8156 10.0538C74.0941 10.0538 75.2058 10.7594 75.7976 11.7914L79.0641 9.97789C77.8425 7.80021 75.4903 6.30922 72.8156 6.30922C68.8586 6.30922 65.649 9.51883 65.649 13.4758C65.649 17.4328 68.8586 20.6424 72.8156 20.6424C75.5093 20.6424 77.8425 19.1704 79.0641 16.9738L75.7976 15.1527ZM43.5839 0.364227H47.6737V20.3693H43.5839V0.364227ZM80.6689 0.364227V20.3693H84.7587V14.3674L89.6111 20.3693H94.8466L88.674 13.2406L94.3875 6.58996H89.3796L84.7549 12.11V0.364227H80.6689Z" fill="black"/>
<path d="M59.8255 15.1907C59.2336 16.1657 58.012 16.8903 56.6348 16.8903C54.7417 16.8903 53.2166 15.3614 53.2166 13.472C53.2166 11.5827 54.7455 10.0538 56.6348 10.0538C58.012 10.0538 59.2336 10.8163 59.8255 11.8103V15.1907ZM59.8255 6.59375V8.21753C59.1578 7.09075 57.4961 6.30542 55.7547 6.30542C52.1619 6.30542 49.3354 9.47709 49.3354 13.4531C49.3354 17.429 52.1619 20.6386 55.7547 20.6386C57.4923 20.6386 59.154 19.8571 59.8255 18.7265V20.3503H63.9153V6.59375H59.8255Z" fill="black"/>
<path fill-rule="evenodd" clip-rule="evenodd" d="M5.06489 15.1717C5.06489 16.5678 3.93811 17.6946 2.54196 17.6946C1.14582 17.6946 0.019043 16.564 0.019043 15.1717C0.019043 13.7793 1.14582 12.6487 2.54196 12.6487H5.06489V15.1717ZM6.32445 15.1717C6.32445 13.7755 7.45123 12.6487 8.84737 12.6487C10.2435 12.6487 11.3703 13.7755 11.3703 15.1717V21.4771C11.3703 22.8732 10.2435 24 8.84737 24C7.45123 24 6.32445 22.8732 6.32445 21.4771V15.1717Z" fill="#516178"/>
<path fill-rule="evenodd" clip-rule="evenodd" d="M8.8473 5.04584C7.45115 5.04584 6.32438 3.91906 6.32438 2.52292C6.32438 1.12678 7.45115 0 8.8473 0C10.2434 0 11.3702 1.12678 11.3702 2.52292V5.04584H8.8473ZM8.8473 6.32438C10.2434 6.32438 11.3702 7.45115 11.3702 8.8473C11.3702 10.2434 10.2434 11.3702 8.8473 11.3702H2.52292C1.12678 11.3702 0 10.2396 0 8.8473C0 7.45495 1.12678 6.32438 2.52292 6.32438H8.8473Z" fill="#91A1B8"/>
<path fill-rule="evenodd" clip-rule="evenodd" d="M18.9541 8.8473C18.9541 7.45115 20.0809 6.32438 21.477 6.32438C22.8732 6.32438 23.9999 7.45115 23.9999 8.8473C23.9999 10.2434 22.8732 11.3702 21.477 11.3702H18.9541V8.8473ZM17.6945 8.8473C17.6945 10.2434 16.5677 11.3702 15.1716 11.3702C13.7755 11.3702 12.6487 10.2434 12.6487 8.8473V2.52292C12.6487 1.12678 13.7755 0 15.1716 0C16.5677 0 17.6945 1.12678 17.6945 2.52292V8.8473Z" fill="#7989A0"/>
<path fill-rule="evenodd" clip-rule="evenodd" d="M15.1716 18.9541C16.5677 18.9541 17.6945 20.0809 17.6945 21.4771C17.6945 22.8732 16.5677 24 15.1716 24C13.7755 24 12.6487 22.8732 12.6487 21.4771V18.9541H15.1716ZM15.1716 17.6946C13.7755 17.6946 12.6487 16.5678 12.6487 15.1717C12.6487 13.7755 13.7755 12.6487 15.1716 12.6487H21.496C22.8921 12.6487 24.0189 13.7755 24.0189 15.1717C24.0189 16.5678 22.8921 17.6946 21.496 17.6946H15.1716Z" fill="#A7B7CE"/>
</g>
<defs>
<clipPath id="clip0">
<rect width="94.8467" height="24" fill="white"/>
</clipPath>
</defs>
</svg>
