<svg width="127" height="32" viewBox="0 0 127 32" fill="none" xmlns="http://www.w3.org/2000/svg">
<g clip-path="url(#clip0)">
<path fill-rule="evenodd" clip-rule="evenodd" d="M40.4578 25.1963L42.036 21.5289C43.7407 22.8036 46.012 23.4663 48.2529 23.4663C49.907 23.4663 50.9541 22.8289 50.9541 21.8628C50.9288 19.1615 41.0446 21.276 40.9687 14.5027C40.9434 11.0629 43.9987 8.41225 48.3288 8.41225C50.9035 8.41225 53.4733 9.04962 55.3095 10.5014L53.8324 14.2447C52.153 13.1723 50.0638 12.4085 48.0759 12.4085C46.7252 12.4085 45.8349 13.0458 45.8349 13.8602C45.8602 16.5109 55.8204 15.0591 55.9216 21.5289C55.9216 25.0446 52.9421 27.5182 48.6626 27.5182C45.5264 27.5131 42.6481 26.7746 40.4578 25.1963ZM101.064 20.2036C100.274 21.5795 98.7973 22.5204 97.0876 22.5204C94.5634 22.5204 92.5299 20.4818 92.5299 17.9627C92.5299 15.4435 94.5684 13.405 97.0876 13.405C98.7923 13.405 100.274 14.3459 101.064 15.7218L105.419 13.3038C103.79 10.4002 100.654 8.41225 97.0876 8.41225C91.8116 8.41225 87.5321 12.6917 87.5321 17.9677C87.5321 23.2437 91.8116 27.5232 97.0876 27.5232C100.679 27.5232 103.79 25.5605 105.419 22.6317L101.064 20.2036ZM58.1119 0.485596H63.5649V27.159H58.1119V0.485596ZM107.559 0.485596V27.159H113.012V19.1565L119.481 27.159H126.462L118.232 17.6541L125.85 8.78658H119.173L113.007 16.1467V0.485596H107.559Z" fill="black"/>
<path d="M79.7672 20.2542C78.9781 21.5542 77.3493 22.5204 75.5131 22.5204C72.9889 22.5204 70.9553 20.4818 70.9553 17.9627C70.9553 15.4436 72.9939 13.405 75.5131 13.405C77.3493 13.405 78.9781 14.4218 79.7672 15.7471V20.2542ZM79.7672 8.79167V10.9567C78.8769 9.45433 76.6613 8.40723 74.3395 8.40723C69.5491 8.40723 65.7805 12.6361 65.7805 17.9374C65.7805 23.2387 69.5491 27.5182 74.3395 27.5182C76.6563 27.5182 78.8719 26.4762 79.7672 24.9687V27.1338H85.2203V8.79167H79.7672Z" fill="black"/>
<path fill-rule="evenodd" clip-rule="evenodd" d="M6.75318 20.2289C6.75318 22.0904 5.25081 23.5928 3.38929 23.5928C1.52776 23.5928 0.0253906 22.0854 0.0253906 20.2289C0.0253906 18.3724 1.52776 16.865 3.38929 16.865H6.75318V20.2289ZM8.4326 20.2289C8.4326 18.3674 9.93497 16.865 11.7965 16.865C13.658 16.865 15.1604 18.3674 15.1604 20.2289V28.6361C15.1604 30.4976 13.658 32 11.7965 32C9.93497 32 8.4326 30.4976 8.4326 28.6361V20.2289Z" fill="#E01E5A"/>
<path fill-rule="evenodd" clip-rule="evenodd" d="M11.7964 6.72779C9.93487 6.72779 8.4325 5.22542 8.4325 3.3639C8.4325 1.50237 9.93487 0 11.7964 0C13.6579 0 15.1603 1.50237 15.1603 3.3639V6.72779H11.7964ZM11.7964 8.4325C13.6579 8.4325 15.1603 9.93487 15.1603 11.7964C15.1603 13.6579 13.6579 15.1603 11.7964 15.1603H3.3639C1.50237 15.1603 0 13.6529 0 11.7964C0 9.93993 1.50237 8.4325 3.3639 8.4325H11.7964Z" fill="#36C5F0"/>
<path fill-rule="evenodd" clip-rule="evenodd" d="M25.2722 11.7964C25.2722 9.93487 26.7746 8.4325 28.6361 8.4325C30.4976 8.4325 32 9.93487 32 11.7964C32 13.6579 30.4976 15.1603 28.6361 15.1603H25.2722V11.7964ZM23.5928 11.7964C23.5928 13.6579 22.0904 15.1603 20.2289 15.1603C18.3674 15.1603 16.865 13.6579 16.865 11.7964V3.3639C16.865 1.50237 18.3674 0 20.2289 0C22.0904 0 23.5928 1.50237 23.5928 3.3639V11.7964Z" fill="#2EB67D"/>
<path fill-rule="evenodd" clip-rule="evenodd" d="M20.2289 25.2722C22.0904 25.2722 23.5928 26.7746 23.5928 28.6361C23.5928 30.4976 22.0904 32 20.2289 32C18.3674 32 16.865 30.4976 16.865 28.6361V25.2722H20.2289ZM20.2289 23.5928C18.3674 23.5928 16.865 22.0904 16.865 20.2289C16.865 18.3674 18.3674 16.865 20.2289 16.865H28.6614C30.5229 16.865 32.0253 18.3674 32.0253 20.2289C32.0253 22.0904 30.5229 23.5928 28.6614 23.5928H20.2289Z" fill="#ECB22E"/>
</g>
<defs>
<clipPath id="clip0">
<rect width="126.462" height="32" fill="white"/>
</clipPath>
</defs>
</svg>
