<svg width="77" height="32" viewBox="0 0 77 32" fill="none" xmlns="http://www.w3.org/2000/svg">
<g clip-path="url(#clip0)">
<path d="M5.38008 12.4839C5.38008 11.6547 6.06056 11.3356 7.1878 11.3356C8.80383 11.3356 10.8452 11.8248 12.4614 12.6967V7.69925C10.6965 6.99754 8.95275 6.72108 7.1878 6.72108C2.87081 6.72108 0 8.97527 0 12.7393C0 18.6083 8.08074 17.6728 8.08074 20.2034C8.08074 21.1815 7.23026 21.5005 6.03932 21.5005C4.27437 21.5005 2.02019 20.7774 0.233852 19.7993V24.8604C2.21157 25.7111 4.21053 26.0725 6.03932 26.0725C10.4625 26.0725 13.5034 23.8823 13.5034 20.0757C13.4822 13.7387 5.38008 14.8657 5.38008 12.4839ZM19.7554 2.46809L14.5667 3.5738L14.5455 20.6073C14.5455 23.7547 16.906 26.0725 20.0532 26.0725C21.7969 26.0725 23.0728 25.7535 23.7745 25.3708V21.0539C23.0942 21.3304 19.7341 22.3085 19.7341 19.1613V11.6121H23.7745V7.08262H19.7341L19.7554 2.46809ZM30.3882 8.65619L30.0478 7.08262H25.4545V25.6897H30.7709V13.0795C32.0254 11.4421 34.1521 11.7398 34.8113 11.9736V7.08262C34.1308 6.82739 31.6428 6.35954 30.3882 8.65619ZM36.1084 7.08262H41.446V25.6897H36.1084V7.08262ZM36.1084 5.46644L41.446 4.31812V0.00128174L36.1084 1.12838V5.46629V5.46644ZM52.5465 6.72108C50.4625 6.72108 49.1228 7.69925 48.3786 8.37987L48.102 7.06139H43.4237V31.8565L48.74 30.7296L48.7614 24.7115C49.5269 25.2644 50.6539 26.0512 52.5253 26.0512C56.3318 26.0512 59.798 22.989 59.798 16.248C59.7768 10.081 56.2679 6.72108 52.5465 6.72108ZM51.2706 21.3728C50.016 21.3728 49.2715 20.9264 48.7614 20.3734L48.74 12.4839C49.2929 11.8673 50.0585 11.4421 51.2706 11.4421C53.2057 11.4421 54.5455 13.611 54.5455 16.3968C54.5455 19.2463 53.227 21.3728 51.2706 21.3728ZM76.555 16.4606C76.555 11.0167 73.9181 6.72108 68.8783 6.72108C63.817 6.72108 60.7548 11.0168 60.7548 16.4181C60.7548 22.8189 64.3701 26.0512 69.5586 26.0512C72.0893 26.0512 74.0031 25.4771 75.4492 24.669V20.4159C74.0033 21.139 72.3445 21.5856 70.2392 21.5856C68.1764 21.5856 66.3476 20.8625 66.1138 18.3533H76.5126C76.5126 18.0766 76.555 16.9709 76.555 16.4606ZM66.0499 14.4404C66.0499 12.0375 67.5173 11.0379 68.8571 11.0379C70.1542 11.0379 71.5365 12.0375 71.5365 14.4404H66.0499Z" fill="#6772E5"/>
</g>
<defs>
<clipPath id="clip0">
<rect width="76.555" height="32" fill="white"/>
</clipPath>
</defs>
</svg>
