<svg width="24" height="24" viewBox="0 0 24 24" fill="none" xmlns="http://www.w3.org/2000/svg">
<path fill-rule="evenodd" clip-rule="evenodd" d="M21.8181 6.14597C21.1356 6.44842 20.4032 6.65355 19.6336 6.74512C20.4194 6.27461 21.0208 5.5283 21.3059 4.64176C20.5689 5.07748 19.7553 5.39388 18.8885 5.56539C18.1943 4.82488 17.2069 4.36364 16.1118 4.36364C14.0108 4.36364 12.3072 6.06718 12.3072 8.16706C12.3072 8.46488 12.3408 8.75576 12.4057 9.03391C9.24434 8.87512 6.44104 7.36048 4.56483 5.05894C4.23686 5.61985 4.05028 6.27342 4.05028 6.97109C4.05028 8.29106 4.72243 9.45573 5.74225 10.1371C5.11877 10.1163 4.53237 9.94476 4.01901 9.65967V9.70718C4.01901 11.5498 5.33086 13.0876 7.07031 13.4376C6.75161 13.5234 6.41555 13.5709 6.06789 13.5709C5.82222 13.5709 5.58464 13.5465 5.35171 13.5002C5.8361 15.0125 7.24067 16.1123 8.90483 16.1424C7.6034 17.1622 5.96243 17.7683 4.1801 17.7683C3.87301 17.7683 3.57052 17.7498 3.27271 17.7162C4.95655 18.7974 6.95561 19.4278 9.10416 19.4278C16.1026 19.4278 19.928 13.6312 19.928 8.60397L19.9153 8.11145C20.6627 7.57833 21.3094 6.90851 21.8181 6.14597Z" fill="#006251"/>
<mask id="mask0" mask-type="alpha" maskUnits="userSpaceOnUse" x="3" y="4" width="19" height="16">
<path fill-rule="evenodd" clip-rule="evenodd" d="M21.8181 6.14597C21.1356 6.44842 20.4032 6.65355 19.6336 6.74512C20.4194 6.27461 21.0208 5.5283 21.3059 4.64176C20.5689 5.07748 19.7553 5.39388 18.8885 5.56539C18.1943 4.82488 17.2069 4.36364 16.1118 4.36364C14.0108 4.36364 12.3072 6.06718 12.3072 8.16706C12.3072 8.46488 12.3408 8.75576 12.4057 9.03391C9.24434 8.87512 6.44104 7.36048 4.56483 5.05894C4.23686 5.61985 4.05028 6.27342 4.05028 6.97109C4.05028 8.29106 4.72243 9.45573 5.74225 10.1371C5.11877 10.1163 4.53237 9.94476 4.01901 9.65967V9.70718C4.01901 11.5498 5.33086 13.0876 7.07031 13.4376C6.75161 13.5234 6.41555 13.5709 6.06789 13.5709C5.82222 13.5709 5.58464 13.5465 5.35171 13.5002C5.8361 15.0125 7.24067 16.1123 8.90483 16.1424C7.6034 17.1622 5.96243 17.7683 4.1801 17.7683C3.87301 17.7683 3.57052 17.7498 3.27271 17.7162C4.95655 18.7974 6.95561 19.4278 9.10416 19.4278C16.1026 19.4278 19.928 13.6312 19.928 8.60397L19.9153 8.11145C20.6627 7.57833 21.3094 6.90851 21.8181 6.14597Z" fill="white"/>
</mask>
<g mask="url(#mask0)">
</g>
</svg>
