<?xml version="1.0" encoding="iso-8859-1"?>
<!-- Generator: Adobe Illustrator 19.0.0, SVG Export Plug-In . SVG Version: 6.00 Build 0)  -->
<svg version="1.1" id="Layer_1" xmlns="http://www.w3.org/2000/svg" xmlns:xlink="http://www.w3.org/1999/xlink" x="0px" y="0px"
	 viewBox="0 0 512 512" style="enable-background:new 0 0 512 512;" xml:space="preserve">
<circle style="fill:#FF9911;" cx="256" cy="256" r="256"/>
<path style="fill:#ED8800;" d="M256,0c-11.317,0-22.461,0.744-33.391,2.167C348.216,18.53,445.217,125.933,445.217,256
	s-97.002,237.47-222.609,253.833C233.539,511.256,244.683,512,256,512c141.385,0,256-114.616,256-256S397.385,0,256,0z"/>
<path style="fill:#FFFFFF;" d="M387.621,222.052H334.47V170.49c0-32.995-26.748-59.743-59.743-59.743h-81.976
	c-32.995,0-59.743,26.748-59.743,59.743V341.51c0,32.995,26.748,59.743,59.743,59.743H341.51c32.995,0,59.743-26.748,59.743-59.743
	V235.684C401.252,228.155,395.149,222.052,387.621,222.052z M205.913,155.27h55.652c15.651,0,28.383,12.732,28.383,28.383
	s-12.732,28.383-28.383,28.383h-55.652c-15.651,0-28.383-12.732-28.383-28.383S190.263,155.27,205.913,155.27z M328.348,345.6
	H205.913c-15.651,0-28.383-12.732-28.383-28.383s12.732-28.383,28.383-28.383h122.435c15.651,0,28.383,12.732,28.383,28.383
	S343.998,345.6,328.348,345.6z"/>
<g>
</g>
<g>
</g>
<g>
</g>
<g>
</g>
<g>
</g>
<g>
</g>
<g>
</g>
<g>
</g>
<g>
</g>
<g>
</g>
<g>
</g>
<g>
</g>
<g>
</g>
<g>
</g>
<g>
</g>
</svg>
