<svg width="132" height="32" viewBox="0 0 132 32" fill="none" xmlns="http://www.w3.org/2000/svg">
<path d="M16.7964 32C7.53455 32 0 24.8218 0 16C0 7.17818 7.53455 0 16.7964 0C22.9782 0 28.6436 3.22182 31.5818 8.40727L32 9.14182L24.8 16L32 22.8582L31.5818 23.5927C28.6436 28.7782 22.9782 32 16.7964 32ZM16.7964 2.24364C8.83273 2.24364 2.35636 8.41455 2.35636 16C2.35636 23.5855 8.83273 29.7564 16.7964 29.7564C21.8182 29.7564 26.4473 27.2836 29.0727 23.2473L23.1345 17.5891L21.5927 19.0582L20.4255 20.1709C19.2109 21.4145 17.4945 22.1273 15.7127 22.1273C12.1673 22.1273 9.28 19.3782 9.28 16C9.28 12.6218 12.1636 9.87273 15.7127 9.87273C17.4945 9.87273 19.2109 10.5855 20.4255 11.8291L23.1382 14.4109L29.0764 8.75273C26.4473 4.72 21.8182 2.24364 16.7964 2.24364ZM15.7127 12.1164C13.4655 12.1164 11.6364 13.8582 11.6364 16C11.6364 18.1418 13.4655 19.88 15.7127 19.88C16.8473 19.88 17.9382 19.4255 18.7091 18.6291L18.7418 18.5964L21.4691 16L18.7091 13.3709C17.9382 12.5745 16.8436 12.1164 15.7127 12.1164Z" fill="#FBDC8E"/>
<path d="M44.888 14.624C44.888 12.992 45.264 11.528 46.016 10.232C46.784 8.936 47.816 7.928 49.112 7.208C50.424 6.472 51.856 6.104 53.408 6.104C55.184 6.104 56.76 6.544 58.136 7.424C59.528 8.288 60.536 9.52 61.16 11.12H57.872C57.44 10.24 56.84 9.584 56.072 9.152C55.304 8.72 54.416 8.504 53.408 8.504C52.304 8.504 51.32 8.752 50.456 9.248C49.592 9.744 48.912 10.456 48.416 11.384C47.936 12.312 47.696 13.392 47.696 14.624C47.696 15.856 47.936 16.936 48.416 17.864C48.912 18.792 49.592 19.512 50.456 20.024C51.32 20.52 52.304 20.768 53.408 20.768C54.416 20.768 55.304 20.552 56.072 20.12C56.84 19.688 57.44 19.032 57.872 18.152H61.16C60.536 19.752 59.528 20.984 58.136 21.848C56.76 22.712 55.184 23.144 53.408 23.144C51.84 23.144 50.408 22.784 49.112 22.064C47.816 21.328 46.784 20.312 46.016 19.016C45.264 17.72 44.888 16.256 44.888 14.624ZM67.3485 11.696C67.7485 11.024 68.2765 10.504 68.9325 10.136C69.6045 9.752 70.3965 9.56 71.3085 9.56V12.392H70.6125C69.5405 12.392 68.7245 12.664 68.1645 13.208C67.6205 13.752 67.3485 14.696 67.3485 16.04V23H64.6125V9.776H67.3485V11.696ZM79.8094 23.216C78.5614 23.216 77.4334 22.936 76.4254 22.376C75.4174 21.8 74.6254 21 74.0494 19.976C73.4734 18.936 73.1854 17.736 73.1854 16.376C73.1854 15.032 73.4814 13.84 74.0734 12.8C74.6654 11.76 75.4734 10.96 76.4974 10.4C77.5214 9.84 78.6654 9.56 79.9294 9.56C81.1934 9.56 82.3374 9.84 83.3614 10.4C84.3854 10.96 85.1934 11.76 85.7854 12.8C86.3774 13.84 86.6734 15.032 86.6734 16.376C86.6734 17.72 86.3694 18.912 85.7614 19.952C85.1534 20.992 84.3214 21.8 83.2654 22.376C82.2254 22.936 81.0734 23.216 79.8094 23.216ZM79.8094 20.84C80.5134 20.84 81.1694 20.672 81.7774 20.336C82.4014 20 82.9054 19.496 83.2894 18.824C83.6734 18.152 83.8654 17.336 83.8654 16.376C83.8654 15.416 83.6814 14.608 83.3134 13.952C82.9454 13.28 82.4574 12.776 81.8494 12.44C81.2414 12.104 80.5854 11.936 79.8814 11.936C79.1774 11.936 78.5214 12.104 77.9134 12.44C77.3214 12.776 76.8494 13.28 76.4974 13.952C76.1454 14.608 75.9694 15.416 75.9694 16.376C75.9694 17.8 76.3294 18.904 77.0494 19.688C77.7854 20.456 78.7054 20.84 79.8094 20.84ZM96.3001 9.56C97.3401 9.56 98.2681 9.776 99.0841 10.208C99.9161 10.64 100.564 11.28 101.028 12.128C101.492 12.976 101.724 14 101.724 15.2V23H99.0121V15.608C99.0121 14.424 98.7161 13.52 98.1241 12.896C97.5321 12.256 96.7241 11.936 95.7001 11.936C94.6761 11.936 93.8601 12.256 93.2521 12.896C92.6601 13.52 92.3641 14.424 92.3641 15.608V23H89.6281V9.776H92.3641V11.288C92.8121 10.744 93.3801 10.32 94.0681 10.016C94.7721 9.712 95.5161 9.56 96.3001 9.56ZM111.2 23.216C109.952 23.216 108.824 22.936 107.816 22.376C106.808 21.8 106.016 21 105.44 19.976C104.864 18.936 104.576 17.736 104.576 16.376C104.576 15.032 104.872 13.84 105.464 12.8C106.056 11.76 106.864 10.96 107.888 10.4C108.912 9.84 110.056 9.56 111.32 9.56C112.584 9.56 113.728 9.84 114.752 10.4C115.776 10.96 116.584 11.76 117.176 12.8C117.768 13.84 118.064 15.032 118.064 16.376C118.064 17.72 117.76 18.912 117.152 19.952C116.544 20.992 115.712 21.8 114.656 22.376C113.616 22.936 112.464 23.216 111.2 23.216ZM111.2 20.84C111.904 20.84 112.56 20.672 113.168 20.336C113.792 20 114.296 19.496 114.68 18.824C115.064 18.152 115.256 17.336 115.256 16.376C115.256 15.416 115.072 14.608 114.704 13.952C114.336 13.28 113.848 12.776 113.24 12.44C112.632 12.104 111.976 11.936 111.272 11.936C110.568 11.936 109.912 12.104 109.304 12.44C108.712 12.776 108.24 13.28 107.888 13.952C107.536 14.608 107.36 15.416 107.36 16.376C107.36 17.8 107.72 18.904 108.44 19.688C109.176 20.456 110.096 20.84 111.2 20.84ZM125.819 23.216C124.779 23.216 123.843 23.032 123.011 22.664C122.195 22.28 121.547 21.768 121.067 21.128C120.587 20.472 120.331 19.744 120.299 18.944H123.131C123.179 19.504 123.443 19.976 123.923 20.36C124.419 20.728 125.035 20.912 125.771 20.912C126.539 20.912 127.131 20.768 127.547 20.48C127.979 20.176 128.195 19.792 128.195 19.328C128.195 18.832 127.955 18.464 127.475 18.224C127.011 17.984 126.267 17.72 125.243 17.432C124.251 17.16 123.443 16.896 122.819 16.64C122.195 16.384 121.651 15.992 121.187 15.464C120.739 14.936 120.515 14.24 120.515 13.376C120.515 12.672 120.723 12.032 121.139 11.456C121.555 10.864 122.147 10.4 122.915 10.064C123.699 9.728 124.595 9.56 125.603 9.56C127.107 9.56 128.315 9.944 129.227 10.712C130.155 11.464 130.651 12.496 130.715 13.808H127.979C127.931 13.216 127.691 12.744 127.259 12.392C126.827 12.04 126.243 11.864 125.507 11.864C124.787 11.864 124.235 12 123.851 12.272C123.467 12.544 123.275 12.904 123.275 13.352C123.275 13.704 123.403 14 123.659 14.24C123.915 14.48 124.227 14.672 124.595 14.816C124.963 14.944 125.507 15.112 126.227 15.32C127.187 15.576 127.971 15.84 128.579 16.112C129.203 16.368 129.739 16.752 130.187 17.264C130.635 17.776 130.867 18.456 130.883 19.304C130.883 20.056 130.675 20.728 130.259 21.32C129.843 21.912 129.251 22.376 128.483 22.712C127.731 23.048 126.843 23.216 125.819 23.216Z" fill="white"/>
</svg>
