<svg width="64" height="64" viewBox="0 0 64 64" fill="none" xmlns="http://www.w3.org/2000/svg">
<rect width="64" height="64" fill="#006251"/>
<path d="M32.7964 48C23.5345 48 16 40.8218 16 32C16 23.1782 23.5345 16 32.7964 16C38.9782 16 44.6436 19.2218 47.5818 24.4073L48 25.1418L40.8 32L48 38.8582L47.5818 39.5927C44.6436 44.7782 38.9782 48 32.7964 48ZM32.7964 18.2436C24.8327 18.2436 18.3564 24.4145 18.3564 32C18.3564 39.5855 24.8327 45.7564 32.7964 45.7564C37.8182 45.7564 42.4473 43.2836 45.0727 39.2473L39.1345 33.5891L37.5927 35.0582L36.4255 36.1709C35.2109 37.4145 33.4945 38.1273 31.7127 38.1273C28.1673 38.1273 25.28 35.3782 25.28 32C25.28 28.6218 28.1636 25.8727 31.7127 25.8727C33.4945 25.8727 35.2109 26.5855 36.4255 27.8291L39.1382 30.4109L45.0764 24.7527C42.4473 20.72 37.8182 18.2436 32.7964 18.2436ZM31.7127 28.1164C29.4655 28.1164 27.6364 29.8582 27.6364 32C27.6364 34.1418 29.4655 35.88 31.7127 35.88C32.8473 35.88 33.9382 35.4255 34.7091 34.6291L34.7418 34.5964L37.4691 32L34.7091 29.3709C33.9382 28.5745 32.8436 28.1164 31.7127 28.1164Z" fill="#FBDC8E"/>
</svg>
